<?xml version="1.0" encoding="utf-8"?>
<!-- Generator: Adobe Illustrator 27.3.1, SVG Export Plug-In . SVG Version: 6.00 Build 0)  -->
<svg version="1.1" id="Layer_2_00000169543240841387288970000011778315952477172364_"
	 xmlns="http://www.w3.org/2000/svg" xmlns:xlink="http://www.w3.org/1999/xlink" x="0px" y="0px" viewBox="0 0 40 40"
	 style="enable-background:new 0 0 40 40;" xml:space="preserve">
<style type="text/css">
	.st0{fill:#FFFFFF;}
</style>
<g id="Layer_1-2">
	<g>
		<path class="st0" d="M20,4.6c5,0,5.6,0,7.6,0.1c1.8,0.1,2.8,0.4,3.5,0.6c0.9,0.3,1.5,0.8,2.2,1.4c0.7,0.7,1.1,1.3,1.4,2.2
			c0.3,0.7,0.6,1.7,0.7,3.5c0.1,2,0.1,2.6,0.1,7.6s0,5.6-0.1,7.6c-0.1,1.8-0.4,2.8-0.7,3.5c-0.3,0.9-0.8,1.5-1.4,2.2
			c-0.7,0.7-1.3,1.1-2.2,1.4c-0.7,0.3-1.7,0.6-3.5,0.7c-2,0.1-2.6,0.1-7.6,0.1s-5.6,0-7.6-0.1c-1.8-0.1-2.8-0.4-3.5-0.7
			c-0.9-0.3-1.5-0.8-2.2-1.4c-0.7-0.7-1.1-1.3-1.4-2.2c-0.3-0.7-0.6-1.7-0.7-3.5c-0.1-2-0.1-2.6-0.1-7.6s0-5.6,0.1-7.6
			C4.7,10.6,5,9.6,5.3,8.9C5.6,8,6.1,7.4,6.7,6.7S8,5.7,8.9,5.3c0.7-0.3,1.7-0.6,3.5-0.7C14.4,4.6,15,4.6,20,4.6 M20,1.2
			c-5.1,0-5.8,0-7.8,0.1S8.8,1.7,7.7,2.1C6.4,2.6,5.4,3.3,4.3,4.3C3.3,5.4,2.6,6.4,2.1,7.7c-0.5,1.2-0.8,2.6-0.9,4.6
			c-0.1,2-0.1,2.6-0.1,7.8s0,5.8,0.1,7.8s0.4,3.4,0.9,4.6c0.5,1.2,1.1,2.3,2.2,3.3c1,1,2.1,1.7,3.3,2.2c1.2,0.5,2.6,0.8,4.6,0.9
			c2,0.1,2.6,0.1,7.8,0.1s5.8,0,7.8-0.1c2-0.1,3.4-0.4,4.6-0.9c1.2-0.5,2.3-1.1,3.3-2.2c1-1,1.7-2.1,2.2-3.3
			c0.5-1.2,0.8-2.6,0.9-4.6c0.1-2,0.1-2.6,0.1-7.8s0-5.8-0.1-7.8c-0.1-2-0.4-3.4-0.9-4.6c-0.5-1.2-1.1-2.3-2.2-3.3
			c-1-1.1-2.1-1.7-3.3-2.2c-1.2-0.5-2.6-0.8-4.6-0.9C25.8,1.2,25.1,1.2,20,1.2C20,1.2,20,1.2,20,1.2z"/>
		<path class="st0" d="M20,10.3c-5.3,0-9.7,4.3-9.7,9.7s4.3,9.7,9.7,9.7s9.7-4.3,9.7-9.7S25.3,10.3,20,10.3z M20,26.3
			c-3.5,0-6.3-2.8-6.3-6.3s2.8-6.3,6.3-6.3s6.3,2.8,6.3,6.3S23.5,26.3,20,26.3z"/>
		<circle class="st0" cx="30.1" cy="9.9" r="2.3"/>
	</g>
</g>
</svg>
