<?xml version="1.0" encoding="utf-8"?>
<!-- Generator: Adobe Illustrator 27.3.1, SVG Export Plug-In . SVG Version: 6.00 Build 0)  -->
<svg version="1.1" id="Layer_2_00000173162195770657921130000001935713014804477091_"
	 xmlns="http://www.w3.org/2000/svg" xmlns:xlink="http://www.w3.org/1999/xlink" x="0px" y="0px" viewBox="0 0 40 40"
	 style="enable-background:new 0 0 40 40;" xml:space="preserve">
<style type="text/css">
	.st0{fill:#FDFDFD;}
</style>
<g id="Layer_1-2">
	<g>
		<path class="st0" d="M21.9,17.3c0.5-0.6,0.9-1.1,1.4-1.6c1.5-1.5,3.4-2.2,5.5-2.2c1.2,0,2.3,0.1,3.5,0.4c2.6,0.8,4.1,2.5,4.8,5.1
			c0.5,1.9,0.6,3.9,0.6,5.8c0,4.1,0,8.3,0,12.4c0,0.4-0.1,0.5-0.5,0.5c-2.1,0-4.3,0-6.4,0c-0.4,0-0.5-0.1-0.5-0.5
			c0-3.9,0-7.9,0-11.8c0-1-0.1-2-0.3-2.9c-0.5-1.8-1.8-2.7-3.6-2.6c-2.5,0.1-3.8,1.4-4.2,4c-0.1,0.6-0.1,1.2-0.1,1.9
			c0,3.8,0,7.6,0,11.5c0,0.4-0.1,0.5-0.5,0.5c-2.1,0-4.3,0-6.4,0c-0.3,0-0.4-0.1-0.4-0.4c0-7.6,0-15.2,0-22.7c0-0.4,0.1-0.5,0.5-0.5
			c2,0,4.1,0,6.1,0c0.4,0,0.5,0.1,0.5,0.5C21.9,15.5,21.9,16.4,21.9,17.3L21.9,17.3z"/>
		<path class="st0" d="M10.2,25.9c0,3.8,0,7.5,0,11.2c0,0.4-0.1,0.5-0.5,0.5c-2.1,0-4.3,0-6.4,0c-0.3,0-0.4-0.1-0.4-0.4
			c0-7.6,0-15.2,0-22.8c0-0.3,0.1-0.4,0.4-0.4c2.2,0,4.3,0,6.5,0c0.4,0,0.5,0.2,0.5,0.5C10.2,18.4,10.2,22.1,10.2,25.9z"/>
		<path class="st0" d="M10.8,6.5c0,2.3-1.9,4.3-4.2,4.3c-2.3,0-4.3-1.9-4.3-4.2c0-2.3,1.9-4.3,4.3-4.3C8.9,2.3,10.8,4.2,10.8,6.5z"
			/>
	</g>
</g>
</svg>
