<?xml version="1.0" encoding="utf-8"?>
<!-- Generator: Adobe Illustrator 27.3.1, SVG Export Plug-In . SVG Version: 6.00 Build 0)  -->
<svg version="1.1" id="Layer_2_00000028324246713161628000000016008097886693017016_"
	 xmlns="http://www.w3.org/2000/svg" xmlns:xlink="http://www.w3.org/1999/xlink" x="0px" y="0px" viewBox="0 0 40 40"
	 style="enable-background:new 0 0 40 40;" xml:space="preserve">
<style type="text/css">
	.st0{fill:#C1DAEA;}
	.st1{fill:#9CC6D9;}
	.st2{fill:#FFFFFF;}
</style>
<g id="Layer_1-2">
	<g>
		<path class="st0" d="M10.7,21.9l3.6,9.8c0,0,0.4,0.9,0.9,0.9s7.6-7.4,7.6-7.4l7.9-15.2l-19.8,9.3L10.7,21.9L10.7,21.9z"/>
		<path class="st1" d="M15.4,24.4l-0.7,7.2c0,0-0.3,2.2,1.9,0s4.3-3.9,4.3-3.9L15.4,24.4L15.4,24.4z"/>
		<path class="st2" d="M10.8,22.2l-7.3-2.4c0,0-0.9-0.4-0.6-1.2c0.1-0.2,0.2-0.3,0.5-0.6C5,17,33.4,6.8,33.4,6.8s0.8-0.3,1.3-0.1
			c0.2,0.1,0.4,0.2,0.5,0.5c0,0.1,0.1,0.4,0.1,0.6c0,0.2,0,0.4,0,0.6c-0.2,2.8-5.3,23.6-5.3,23.6s-0.3,1.2-1.4,1.3
			c-0.4,0-0.9-0.1-1.5-0.6c-2.2-1.9-9.7-6.9-11.3-8c-0.1-0.1-0.1-0.1-0.1-0.2c0-0.1,0.1-0.3,0.1-0.3s13.1-11.6,13.4-12.8
			c0-0.1-0.1-0.1-0.2-0.1c-0.9,0.3-15.9,9.8-17.6,10.9C11,22.2,10.8,22.2,10.8,22.2L10.8,22.2z"/>
	</g>
</g>
</svg>
